<svg xmlns="http://www.w3.org/2000/svg" viewBox="0 0 128 128">
    <defs>
        <linearGradient id="bg" x1="0" y1="0" x2="0" y2="1">
            <stop offset="0" stop-color="#36c986" />
            <stop offset="1" stop-color="#1d9960" />
        </linearGradient>
    </defs>
    <rect x="0" y="0" width="128" height="128" rx="24" fill="url(#bg)" />
    <path transform="translate(64 64) scale(0.08705 -0.08705) translate(-503.5 -380.0)" fill="#0c1a12" d="M464 721H949V610H464ZM482 537H911V426H482ZM867 352H974Q974 352 973.0 336.5Q972 321 971 310Q965 222 958.0 165.0Q951 108 942.5 75.5Q934 43 921 28Q909 13 895.0 5.5Q881 -2 863 -4Q848 -7 825.0 -8.0Q802 -9 775 -7Q774 16 767.0 44.5Q760 73 748 93Q768 92 783.0 91.0Q798 90 807 90Q816 90 822.0 92.0Q828 94 833 101Q841 109 846.5 134.0Q852 159 857.5 208.0Q863 257 867 337ZM460 352H907V240H460ZM620 851H741V-88H620ZM188 850H305V558H188ZM188 302H305V-91H188ZM168 376V332H322V376ZM168 505V462H322V505ZM65 595H430V242H65ZM43 757H446V653H43ZM33 183H448V76H33Z" />
</svg>
